<?xml version="1.0" standalone="no"?>
<!DOCTYPE svg PUBLIC "-//W3C//DTD SVG 20010904//EN"
 "http://www.w3.org/TR/2001/REC-SVG-20010904/DTD/svg10.dtd">
<svg version="1.0" xmlns="http://www.w3.org/2000/svg"
 width="225.000000pt" height="225.000000pt" viewBox="0 0 225.000000 225.000000"
 preserveAspectRatio="xMidYMid meet">
<metadata>
Created by potrace 1.15, written by Peter Selinger 2001-2017
</metadata>
<g transform="translate(0.000000,225.000000) scale(0.100000,-0.100000)"
fill="#000000" stroke="none">
<path d="M209 2235 c-15 -8 -29 -25 -33 -37 -6 -22 89 -474 104 -491 3 -4 38
0 77 9 l71 16 -15 61 c-7 34 -32 141 -54 237 -33 148 -43 179 -65 198 -29 25
-48 27 -85 7z"/>
<path d="M372 1573 c-56 -13 -61 -17 -57 -36 32 -129 184 -801 182 -802 -1 -1
-67 -16 -147 -34 -180 -42 -205 -51 -225 -91 -21 -41 -12 -113 13 -106 10 3
226 53 482 111 256 59 466 108 467 109 10 9 -23 79 -44 96 -35 27 -66 26 -239
-15 -81 -19 -150 -32 -153 -30 -2 3 -44 177 -92 387 -48 210 -90 392 -94 405
-6 26 -8 26 -93 6z"/>
<path d="M1989 1434 c-55 -17 -101 -59 -188 -174 -35 -47 -69 -84 -75 -82 -6
2 -36 19 -67 38 -74 45 -115 45 -166 2 -34 -30 -264 -239 -321 -293 l-23 -22
24 -36 c14 -20 30 -59 37 -86 l12 -50 95 59 96 59 76 -53 c42 -29 133 -92 203
-140 l128 -87 -54 -107 c-60 -120 -69 -148 -86 -274 l-12 -87 -98 65 -97 65
-61 -12 -61 -13 42 -28 c201 -135 278 -180 301 -174 17 4 74 77 202 258 97
139 185 269 195 288 36 69 49 208 29 298 -17 73 -55 117 -154 179 -50 31 -93
58 -95 60 -6 4 60 98 103 150 20 22 60 53 91 69 31 15 61 36 66 46 16 30 -1
69 -37 84 -40 17 -46 17 -105 -2z m-299 -539 c102 -69 191 -132 198 -140 11
-10 9 -22 -15 -69 l-28 -56 -198 136 c-148 102 -197 140 -193 152 3 10 10 39
17 65 7 28 16 46 23 44 6 -3 94 -62 196 -132z"/>
<path d="M627 465 c-242 -56 -442 -107 -446 -114 -8 -12 -36 -280 -30 -285 7
-5 1104 251 1104 257 0 4 -34 61 -75 127 -57 91 -80 120 -95 119 -11 -1 -217
-47 -458 -104z"/>
</g>
</svg>
